<?xml version="1.0" standalone="no"?>
<!DOCTYPE svg PUBLIC "-//W3C//DTD SVG 20010904//EN"
 "http://www.w3.org/TR/2001/REC-SVG-20010904/DTD/svg10.dtd">
<svg version="1.0" xmlns="http://www.w3.org/2000/svg"
 width="512.000000pt" height="512.000000pt" viewBox="0 0 512.000000 512.000000"
 preserveAspectRatio="xMidYMid meet">
<metadata>
Created by potrace 1.14, written by Peter Selinger 2001-2017
</metadata>
<g transform="translate(0.000000,512.000000) scale(0.100000,-0.100000)"
fill="#000000" stroke="none">
<path d="M1230 5113 c-172 -27 -264 -55 -398 -120 -105 -51 -132 -78 -126
-125 4 -28 0 -36 -28 -55 -18 -13 -45 -33 -61 -45 -21 -17 -30 -19 -39 -10
-26 26 -61 13 -115 -43 -114 -122 -233 -339 -269 -496 -30 -129 -36 -191 -39
-410 l-2 -235 -33 -45 c-17 -24 -36 -55 -42 -69 -5 -14 -15 -36 -20 -50 -18
-42 -20 -52 -24 -141 -2 -62 2 -102 15 -145 43 -143 159 -262 301 -309 57 -19
184 -28 229 -16 23 7 29 2 59 -48 69 -115 198 -258 309 -343 29 -22 53 -41 53
-42 0 0 -29 -32 -65 -71 -184 -196 -314 -429 -397 -710 -16 -55 -32 -114 -34
-131 -3 -17 -11 -53 -18 -80 l-12 -49 -106 -1 c-169 -2 -219 -19 -290 -95 -61
-66 -73 -112 -73 -279 0 -117 4 -154 18 -193 22 -56 89 -126 146 -151 32 -15
41 -24 41 -45 1 -14 1 -135 1 -268 0 -221 2 -244 19 -265 l18 -23 2305 -3
c2259 -2 2305 -2 2328 17 26 21 27 42 29 452 l0 116 41 18 c55 25 117 87 142
143 19 41 21 66 22 203 0 154 0 156 -31 215 -55 106 -150 158 -286 157 -37 0
-65 3 -63 7 2 3 6 17 9 31 3 13 31 114 61 224 31 110 67 238 80 285 91 328
127 470 127 500 -1 76 -44 143 -114 175 l-49 23 -882 -2 -882 -1 -41 -22 c-22
-12 -52 -39 -66 -60 -22 -31 -57 -128 -73 -202 -3 -13 -70 -257 -78 -285 -2
-4 -25 25 -51 65 -69 104 -125 175 -190 242 -31 31 -56 59 -56 61 0 2 24 22
53 44 114 87 267 258 267 299 0 13 -7 34 -15 47 -15 22 -14 26 9 61 14 20 28
45 31 55 4 13 15 18 33 18 62 -2 88 37 137 209 91 316 53 682 -100 970 l-44
82 42 24 c275 162 336 541 124 777 -39 44 -111 97 -162 120 -107 50 -111 50
-905 48 -410 0 -756 -3 -770 -5z"/>
</g>
</svg>
